<svg version="1.1" id="Layer_1" xmlns="http://www.w3.org/2000/svg" xmlns:xlink="http://www.w3.org/1999/xlink" x="0px" y="0px"
	 width="100%" viewBox="0 0 1404 1404" enable-background="new 0 0 1404 1404" xml:space="preserve">
<path fill="#FFFFFF" opacity="1.000000" stroke="none" 
	d="
M1405.000000,127.000000 
	C1405.000000,508.693512 1405.000000,890.387024 1404.531738,1272.561768 
	C1388.077148,1273.047485 1372.086792,1272.854370 1356.106689,1273.172607 
	C1351.114136,1273.272095 1350.058105,1271.578369 1350.079224,1266.911133 
	C1350.252441,1228.444824 1350.180542,1189.977295 1350.174561,1151.510132 
	C1350.174316,1149.512939 1350.253662,1147.498047 1350.028198,1145.521973 
	C1349.456299,1140.510132 1345.816650,1137.166138 1341.114136,1137.143311 
	C1336.575562,1137.121338 1332.712646,1140.646362 1332.129395,1145.534790 
	C1331.893799,1147.508789 1331.976074,1149.525269 1331.975708,1151.522339 
	C1331.969482,1189.989502 1331.896973,1228.457031 1332.070312,1266.923340 
	C1332.091553,1271.638184 1330.908691,1273.191895 1325.981201,1273.164917 
	C1289.346924,1272.964844 1252.710571,1272.959839 1216.076294,1273.168213 
	C1211.098999,1273.196533 1210.026123,1271.586304 1210.046875,1266.914551 
	C1210.219116,1228.281738 1210.152466,1189.647583 1210.124268,1151.013916 
	C1210.122559,1148.697266 1209.832031,1146.380981 1209.720337,1143.710205 
	C1208.337036,1138.422241 1204.821167,1136.664185 1199.995483,1137.042358 
	C1195.091064,1137.426636 1192.850830,1140.442993 1192.222290,1145.515625 
	C1192.108765,1188.190063 1192.108765,1230.412598 1192.108765,1272.684937 
	C1151.962891,1272.684937 1112.761108,1272.684937 1073.064453,1272.684937 
	C1073.064453,1270.361938 1073.064453,1268.396973 1073.064453,1266.432007 
	C1073.064697,1228.794434 1073.074585,1191.156860 1073.043091,1153.519287 
	C1073.041016,1151.039551 1072.723755,1148.560181 1072.621338,1145.738159 
	C1071.210205,1141.051758 1068.087891,1138.154907 1063.623169,1138.498047 
	C1059.454346,1138.818481 1055.767090,1140.999512 1055.211914,1146.516235 
	C1055.017212,1149.128540 1054.882690,1151.290649 1054.881958,1153.452759 
	C1054.869019,1191.277954 1054.875000,1229.103027 1054.869629,1266.928223 
	C1054.868774,1273.089722 1054.568481,1273.344727 1048.300659,1272.784058 
	C1042.335815,1272.250366 1036.364746,1271.777466 1030.407715,1271.167358 
	C998.840698,1267.934692 967.901611,1261.839722 937.958252,1251.076782 
	C934.773987,1249.932251 933.673096,1248.466309 933.658203,1245.026001 
	C933.479980,1203.916138 933.037292,1162.807495 932.839294,1121.697754 
	C932.682800,1089.205444 932.906250,1056.710693 932.619629,1024.220093 
	C932.569214,1018.509460 931.280273,1012.681213 929.647827,1007.178955 
	C929.034241,1005.110718 925.901367,1002.676147 923.763000,1002.520081 
	C921.995239,1002.391113 918.854309,1005.059937 918.321960,1007.029663 
	C916.736877,1012.894165 915.298889,1019.022339 915.280701,1025.052002 
	C915.069092,1095.034302 915.130127,1165.017334 915.118835,1235.000244 
	C915.118530,1236.899658 915.118835,1238.799072 915.118835,1240.733521 
	C914.019470,1240.733521 913.653931,1240.835938 913.387390,1240.716919 
	C911.717041,1239.970459 910.046387,1239.218506 908.416321,1238.388794 
	C872.156433,1219.932495 842.603699,1193.379272 817.057495,1162.139404 
	C790.141663,1129.224731 768.606018,1092.925537 750.105286,1054.716187 
	C726.077393,1005.092102 707.590942,953.415955 693.104309,900.317932 
	C686.670776,876.737427 681.748352,852.744751 676.138672,828.939453 
	C674.820984,823.347717 671.971924,820.893250 667.824768,821.767700 
	C663.881287,822.599243 661.986267,825.834656 662.862366,831.156494 
	C665.482849,847.073425 667.818909,863.055359 671.061890,878.848511 
	C687.106934,956.986450 710.548401,1032.638550 747.848145,1103.516846 
	C771.437073,1148.341553 800.078918,1189.393799 838.068542,1223.409180 
	C862.511353,1245.294922 889.897827,1262.434814 920.543518,1274.143311 
	C968.669983,1292.530396 1018.669922,1300.771729 1070.084961,1300.791748 
	C1179.727905,1300.834473 1289.370850,1300.805786 1399.013794,1300.816040 
	C1401.009155,1300.816162 1403.004639,1300.936035 1405.000000,1301.000000 
	C1405.000000,1335.657715 1405.000000,1370.315308 1405.000000,1404.946045 
	C937.000000,1404.946045 469.000000,1404.946045 1.000000,1404.946045 
	C1.000000,1370.234497 1.000000,1335.577026 1.468309,1300.479980 
	C101.385521,1300.290039 200.834412,1300.543091 300.283386,1300.767700 
	C302.762421,1300.773315 305.242218,1300.462646 308.036072,1300.407715 
	C311.201996,1302.237549 314.005920,1304.044189 316.912415,1305.667236 
	C346.997864,1322.466675 376.964783,1322.486450 406.506561,1304.482300 
	C413.153107,1300.431519 419.435699,1295.612305 425.294434,1290.472656 
	C442.393677,1275.472290 455.285736,1257.057251 466.806671,1237.633789 
	C482.739349,1210.772339 495.951202,1182.534546 506.994232,1153.401855 
	C528.416382,1096.888062 549.502014,1040.237915 569.917114,983.353516 
	C602.256775,893.242859 633.965820,802.905518 665.773254,712.604797 
	C667.229248,708.471375 669.210632,707.477295 673.276245,707.496216 
	C709.602478,707.665100 745.929626,707.634094 782.256531,707.634644 
	C784.414490,707.634644 786.625122,707.654297 788.719421,707.220886 
	C793.126892,706.308716 795.727417,703.498474 796.047485,698.932007 
	C796.351379,694.595886 793.565674,690.919861 789.040161,689.869141 
	C786.962830,689.386780 784.746765,689.369690 782.593384,689.366943 
	C748.599426,689.323914 714.605469,689.317566 680.611511,689.302979 
	C678.721924,689.302185 676.832336,689.302856 674.437744,689.302856 
	C675.124878,687.128906 675.477600,685.874023 675.914856,684.649353 
	C704.302307,605.150696 732.434753,525.559753 761.172302,446.187897 
	C784.528625,381.678833 808.381409,317.336487 837.944275,255.314865 
	C852.731140,224.292603 868.402588,193.694321 890.624329,167.202316 
	C898.022095,158.382950 907.481628,151.293030 916.258850,143.785950 
	C916.670044,146.469604 916.952698,148.779770 916.953064,151.089981 
	C916.973389,290.685242 916.970520,430.280518 916.970032,569.875793 
	C916.969971,579.870667 917.095947,589.867981 916.908081,599.859314 
	C916.835022,603.747620 918.616333,605.805481 922.054871,606.720154 
	C930.647461,609.005798 935.074036,605.622986 935.074280,596.872864 
	C935.078796,443.618286 935.083313,290.363678 935.530396,136.959473 
	C964.910645,135.071487 990.081177,142.589081 1008.573364,166.428909 
	C1011.940979,170.770386 1015.358887,175.090454 1018.442932,179.631363 
	C1034.314331,203.000626 1045.340210,228.595306 1053.104614,255.673553 
	C1054.660400,261.099396 1057.822876,263.634216 1061.721558,262.823914 
	C1065.727051,261.991394 1067.806885,258.319977 1066.866699,252.923080 
	C1060.369141,215.621170 1048.408447,180.341034 1027.492065,148.494659 
	C1022.838623,141.409576 1017.495056,134.777832 1012.970337,127.900879 
	C1072.840576,127.864403 1132.209717,127.864403 1192.027100,127.864403 
	C1192.027100,130.031616 1192.026978,132.169327 1192.026978,134.307037 
	C1192.027954,440.805573 1192.029053,747.304077 1192.031982,1053.802612 
	C1192.031982,1056.302368 1191.912354,1058.813843 1192.108032,1061.299438 
	C1192.531860,1066.686523 1196.440552,1070.188721 1201.632935,1070.030029 
	C1206.917725,1069.868774 1209.866089,1066.780640 1210.131348,1061.010010 
	C1210.238403,1058.681274 1210.183228,1056.344360 1210.183228,1054.011230 
	C1210.185913,747.346008 1210.186890,440.680817 1210.188354,134.015610 
	C1210.188354,127.125511 1210.191284,127.119530 1216.909058,127.116089 
	C1252.575562,127.097809 1288.242065,127.082741 1323.908569,127.066734 
	C1325.819214,127.065872 1327.729736,127.066620 1329.977173,127.066620 
	C1329.977173,129.445312 1329.972046,130.929810 1329.978027,132.414276 
	C1330.257324,202.067047 1330.558838,271.719757 1330.805176,341.372620 
	C1330.880493,362.673981 1330.748413,383.976013 1330.808960,405.277466 
	C1331.153320,526.593689 1331.565674,647.909729 1331.876099,769.226074 
	C1332.059448,840.892090 1332.087402,912.558472 1332.239258,984.224670 
	C1332.245239,987.026611 1332.513306,989.901855 1333.187622,992.611511 
	C1334.235962,996.825500 1337.170532,998.971558 1341.609009,998.936707 
	C1347.474487,998.890564 1350.926514,994.674744 1350.888062,987.182739 
	C1350.684937,947.530090 1350.334717,907.878052 1350.204468,868.225220 
	C1349.821167,751.574341 1349.513550,634.923096 1349.186768,518.272034 
	C1349.138184,500.938843 1349.174072,483.605469 1349.124146,466.272308 
	C1348.804810,355.454834 1348.471436,244.637375 1348.146851,133.819901 
	C1348.127075,127.062248 1348.143799,127.060265 1355.000610,127.052620 
	C1371.667114,127.034027 1388.333496,127.017410 1405.000000,127.000000 
M1071.004883,1035.500000 
	C1071.004883,803.567566 1071.005005,571.635132 1071.004272,339.702667 
	C1071.004272,337.869904 1071.258789,335.987976 1070.931885,334.214233 
	C1070.157837,330.014191 1068.040161,326.621918 1063.457153,326.076630 
	C1058.829590,325.526001 1055.216309,327.437500 1053.891235,332.160431 
	C1053.232178,334.509308 1053.034546,337.055023 1053.034180,339.511749 
	C1052.997559,578.608704 1053.000000,817.705688 1053.000000,1056.802612 
	C1053.000000,1065.133545 1052.957886,1073.464722 1053.013184,1081.795288 
	C1053.059692,1088.800781 1056.516357,1092.915527 1062.274292,1092.998779 
	C1067.596924,1093.075562 1070.991699,1088.825073 1070.999268,1081.986694 
	C1071.015869,1066.824463 1071.004639,1051.662231 1071.004883,1035.500000 
M967.492126,667.097961 
	C990.795837,667.250671 1002.456604,676.187073 1008.083435,698.888672 
	C1009.914246,706.275085 1010.526917,713.956970 1011.976685,721.449524 
	C1012.267883,722.954346 1013.827820,724.213623 1014.802673,725.586121 
	C1016.138184,724.328491 1017.766296,723.253418 1018.705322,721.748413 
	C1019.320740,720.762268 1018.939819,719.153992 1019.003906,717.824280 
	C1019.806274,701.184143 1020.383179,684.529053 1021.480713,667.908447 
	C1022.382507,654.252136 1020.599792,651.992432 1006.967957,652.072327 
	C952.640991,652.390686 898.314087,652.726746 843.987183,653.050476 
	C835.255798,653.102478 832.377991,656.092468 832.809387,664.940552 
	C833.588257,680.914978 834.421326,696.886780 835.272156,712.857544 
	C835.449219,716.181580 835.447388,719.582397 836.224548,722.778564 
	C836.610168,724.364197 838.576416,725.565430 839.827515,726.940552 
	C840.885071,725.504883 842.055908,724.135071 842.946228,722.602234 
	C843.319946,721.958679 843.078430,720.968323 843.153015,720.138916 
	C844.213928,708.329956 846.101501,696.701782 851.136169,685.828796 
	C855.637695,676.107117 863.037292,669.055969 873.729187,668.297241 
	C887.957458,667.287598 902.311279,668.048035 917.082153,668.048035 
	C917.082153,763.424988 917.082153,859.119141 917.082153,954.630127 
	C924.286194,954.630127 931.017090,954.630127 938.198364,954.630127 
	C938.198364,858.684448 938.198364,763.115601 938.198364,667.099182 
	C947.964966,667.099182 957.265503,667.099182 967.492126,667.097961 
z"/>
<path fill="#FFFFFF" opacity="1.000000" stroke="none" 
	d="
M1.000000,1273.000000 
	C1.000000,891.639771 1.000000,510.279602 1.460779,128.363403 
	C28.242472,127.788940 54.564301,127.876427 80.883415,127.649353 
	C85.353668,127.610786 86.450096,128.933990 86.431580,133.283569 
	C86.267677,171.765488 86.318527,210.248413 86.373451,248.730957 
	C86.377464,251.537933 86.535759,254.448608 87.284729,257.125763 
	C88.350540,260.935425 91.100342,263.524628 95.190742,263.693298 
	C99.162598,263.857117 102.422768,262.004211 103.809952,258.149017 
	C104.628860,255.873184 104.915955,253.295944 104.920059,250.853378 
	C104.985542,211.871094 104.966614,172.888687 104.966934,133.906296 
	C104.966949,131.985840 104.966942,130.065384 104.966942,128.164062 
	C144.693497,128.164062 183.569656,128.164062 222.906204,128.164062 
	C222.906204,130.540680 222.906189,132.507843 222.906189,134.474991 
	C222.906036,173.290787 222.898132,212.106567 222.925186,250.922348 
	C222.926804,253.240799 223.208359,255.559036 223.304581,258.230530 
	C224.883713,263.258240 228.142075,265.426270 233.099472,264.936432 
	C237.407410,264.510773 239.937576,262.163361 240.764954,257.431335 
	C240.956482,254.821747 241.092010,252.659531 241.092865,250.497269 
	C241.108337,211.667969 241.107513,172.838669 241.110168,134.009369 
	C241.110291,132.077515 241.110184,130.145660 241.110184,127.816414 
	C243.684845,127.816414 245.499786,127.722382 247.302368,127.831825 
	C258.264679,128.497406 269.251099,128.925278 280.179199,129.962433 
	C306.226654,132.434570 331.956635,136.760254 357.223572,143.728012 
	C361.017029,144.774109 362.060059,146.473160 362.042908,150.284607 
	C361.890594,184.113739 361.944061,217.943848 361.953583,251.773666 
	C361.955933,260.144073 365.239044,264.744019 371.107391,264.716888 
	C376.963531,264.689819 380.132538,260.146545 380.134033,251.714340 
	C380.139587,220.384262 380.130249,189.054199 380.145874,157.724121 
	C380.146851,155.808456 380.315277,153.892868 380.424469,151.581802 
	C382.311462,151.921341 383.641937,151.972382 384.835449,152.403015 
	C416.141174,163.698090 445.064209,179.176651 469.979462,201.514206 
	C507.207184,234.890442 533.659790,276.035736 555.089539,320.680420 
	C572.062805,356.040833 585.340759,392.813477 596.085205,430.524384 
	C607.408569,470.267090 616.297974,510.526215 622.129639,551.445862 
	C623.209167,559.020325 623.968933,566.643250 625.185181,574.194031 
	C625.812317,578.087708 627.902710,581.178711 632.473694,580.916992 
	C636.942566,580.661133 638.874084,577.794861 638.945862,573.561523 
	C638.988220,571.065491 639.000244,568.543579 638.706970,566.071167 
	C636.218933,545.096680 633.996094,524.083191 631.049438,503.172211 
	C624.438721,456.260132 613.811584,410.244202 598.764465,365.303284 
	C580.345154,310.290558 556.086182,258.310425 518.996216,213.050156 
	C495.911072,184.879745 468.753296,161.626709 436.331512,144.865555 
	C377.910889,114.663673 315.037170,101.503342 249.965759,100.399765 
	C166.998779,98.992683 83.990486,100.021286 1.000000,100.000000 
	C1.000000,67.008652 1.000000,34.017296 1.000000,1.052980 
	C469.000000,1.052980 937.000000,1.052980 1405.000000,1.052980 
	C1405.000000,33.430836 1405.000000,65.755714 1404.535156,98.607239 
	C1365.467041,99.367584 1326.864014,99.689217 1288.260498,99.810623 
	C1248.446655,99.935844 1208.632324,99.853828 1168.818115,99.884697 
	C1107.850952,99.931961 1046.883789,99.998253 985.598999,99.948364 
	C971.140076,89.238647 955.762268,81.754616 937.705383,81.157257 
	C916.672363,80.461456 898.698120,88.538269 882.396179,100.949379 
	C865.052429,114.153664 851.869324,131.089554 840.197327,149.276657 
	C818.224426,183.514618 801.603210,220.452316 787.177185,258.284943 
	C760.540405,328.140625 734.454895,398.213257 708.870911,468.461761 
	C682.773804,540.119141 657.522034,612.084717 632.041077,683.965332 
	C630.581055,688.083862 628.666687,689.424500 624.246338,689.397644 
	C587.919006,689.176697 551.589844,689.245789 515.261230,689.247681 
	C513.100342,689.247803 510.901947,689.206055 508.786194,689.566467 
	C503.910156,690.396973 500.936829,693.920532 500.968018,698.477905 
	C500.998901,702.991943 504.111053,706.495300 508.966217,707.222107 
	C510.929901,707.516113 512.952759,707.481262 514.948730,707.483276 
	C548.944336,707.517761 582.939880,707.534485 616.935486,707.554993 
	C618.825195,707.556152 620.714966,707.555176 623.309631,707.555176 
	C622.375366,710.374084 621.790649,712.241882 621.139954,714.086426 
	C603.081665,765.276489 585.325378,816.575806 566.878357,867.625549 
	C541.188843,938.718018 515.443420,1009.797302 488.816833,1080.541626 
	C473.614410,1120.932983 455.628815,1160.186279 433.279541,1197.253174 
	C422.584534,1214.990967 410.794098,1231.940918 395.338898,1245.992188 
	C387.355225,1253.250732 378.654175,1259.786255 367.799622,1261.421631 
	C332.267426,1266.775269 301.241089,1259.176147 278.565369,1228.863159 
	C262.164032,1206.937744 251.531021,1182.296753 243.967850,1156.185913 
	C242.764557,1152.031494 241.830460,1147.799927 240.692795,1143.625488 
	C239.323013,1138.599487 236.197311,1136.076172 232.368988,1136.786987 
	C228.531982,1137.499390 226.599182,1140.816772 226.934341,1146.118896 
	C226.955368,1146.451538 226.977859,1146.784912 227.021942,1147.114868 
	C233.060242,1192.319824 246.718475,1234.451416 276.587677,1270.051147 
	C277.327911,1270.933472 277.907043,1271.951050 278.057251,1272.900513 
	C220.181351,1272.895508 162.809479,1272.895508 104.981041,1272.895508 
	C104.981041,1270.143433 104.981010,1268.175293 104.981041,1266.207031 
	C104.981606,1229.075195 104.982941,1191.943359 104.980469,1154.811523 
	C104.980347,1152.980103 105.081985,1151.135620 104.903885,1149.319824 
	C104.367378,1143.850098 100.504158,1140.075684 95.585907,1140.071533 
	C90.924500,1140.067383 87.105461,1144.295776 86.868362,1149.788696 
	C86.789444,1151.617188 86.834076,1153.451416 86.833984,1155.282959 
	C86.832115,1192.248291 86.832970,1229.213745 86.830559,1266.179077 
	C86.830116,1272.879395 86.824593,1272.873291 79.917267,1272.882935 
	C53.611507,1272.919556 27.305756,1272.960571 1.000000,1273.000000 
M362.010986,882.500000 
	C362.010986,984.815186 361.998291,1087.130371 362.053741,1189.445557 
	C362.056152,1193.902344 362.530579,1198.377319 363.063507,1202.810303 
	C363.580505,1207.110962 368.174133,1211.594116 371.761261,1211.687256 
	C375.808502,1211.792236 379.050537,1208.513550 379.939697,1203.134521 
	C380.451172,1200.040039 380.950958,1196.894287 380.951447,1193.771606 
	C380.997131,909.321960 381.001587,624.872375 380.913605,340.422791 
	C380.912415,336.518066 379.956116,332.550079 378.986572,328.728058 
	C378.107178,325.261200 376.434326,321.896454 372.077911,322.074829 
	C367.814972,322.249420 364.893707,324.822388 363.986847,328.882996 
	C362.983307,333.376801 362.092468,338.018036 362.090118,342.595520 
	C361.997009,522.230347 362.010986,701.865173 362.010986,882.500000 
M84.995224,733.500000 
	C84.995300,844.152649 84.995300,954.805359 84.996056,1065.458008 
	C84.996071,1067.124390 84.894646,1068.800049 85.031479,1070.455566 
	C85.411987,1075.059204 88.190041,1078.321411 92.479340,1078.405518 
	C95.214592,1078.459351 98.865410,1076.480225 100.531845,1074.241089 
	C102.316711,1071.842896 102.905678,1068.070923 102.906960,1064.898071 
	C103.007828,815.263000 103.002289,565.627869 102.959717,315.992767 
	C102.959297,313.541809 102.828201,310.901947 101.934402,308.681885 
	C100.379623,304.820099 97.579552,301.781830 92.944046,302.236237 
	C88.125053,302.708618 85.163002,306.460114 85.007652,311.553497 
	C84.956871,313.218414 84.995613,314.886169 84.995613,316.552612 
	C84.995338,455.201752 84.995277,593.850891 84.995224,733.500000 
M236.999390,966.500000 
	C236.999390,752.032104 236.999573,537.564148 236.996490,323.096252 
	C236.996460,321.264069 237.143280,319.405487 236.893707,317.604645 
	C236.112076,311.964569 232.496353,308.806671 227.274948,309.000671 
	C221.378555,309.219757 218.997604,312.578644 218.997543,320.741486 
	C218.995453,571.537292 218.995956,822.333069 218.996353,1073.128906 
	C218.996353,1074.128784 218.973419,1075.129639 219.008102,1076.128418 
	C219.152634,1080.289673 221.429398,1083.564819 225.150909,1084.257080 
	C227.728439,1084.736694 231.546173,1083.558350 233.377823,1081.705322 
	C235.427856,1079.631470 236.831787,1075.966675 236.851318,1072.983276 
	C237.081589,1037.823364 236.999344,1002.661438 236.999390,966.500000 
z"/>
<path fill="#7FAFFF" opacity="1.000000" stroke="none" 
	d="
M985.916626,100.056473 
	C1046.883789,99.998253 1107.850952,99.931961 1168.818115,99.884697 
	C1208.632324,99.853828 1248.446655,99.935844 1288.260498,99.810623 
	C1326.864014,99.689217 1365.467041,99.367584 1404.535156,99.066940 
	C1405.000000,108.020897 1405.000000,117.041786 1405.000000,126.531342 
	C1388.333496,127.017410 1371.667114,127.034027 1355.000610,127.052620 
	C1348.143799,127.060265 1348.127075,127.062248 1348.146851,133.819901 
	C1348.471436,244.637375 1348.804810,355.454834 1349.124146,466.272308 
	C1349.174072,483.605469 1349.138184,500.938843 1349.186768,518.272034 
	C1349.513550,634.923096 1349.821167,751.574341 1350.204468,868.225220 
	C1350.334717,907.878052 1350.684937,947.530090 1350.888062,987.182739 
	C1350.926514,994.674744 1347.474487,998.890564 1341.609009,998.936707 
	C1337.170532,998.971558 1334.235962,996.825500 1333.187622,992.611511 
	C1332.513306,989.901855 1332.245239,987.026611 1332.239258,984.224670 
	C1332.087402,912.558472 1332.059448,840.892090 1331.876099,769.226074 
	C1331.565674,647.909729 1331.153320,526.593689 1330.808960,405.277466 
	C1330.748413,383.976013 1330.880493,362.673981 1330.805176,341.372620 
	C1330.558838,271.719757 1330.257324,202.067047 1329.978027,132.414276 
	C1329.972046,130.929810 1329.977173,129.445312 1329.977173,127.066620 
	C1327.729736,127.066620 1325.819214,127.065872 1323.908569,127.066734 
	C1288.242065,127.082741 1252.575562,127.097809 1216.909058,127.116089 
	C1210.191284,127.119530 1210.188354,127.125511 1210.188354,134.015610 
	C1210.186890,440.680817 1210.185913,747.346008 1210.183228,1054.011230 
	C1210.183228,1056.344360 1210.238403,1058.681274 1210.131348,1061.010010 
	C1209.866089,1066.780640 1206.917725,1069.868774 1201.632935,1070.030029 
	C1196.440552,1070.188721 1192.531860,1066.686523 1192.108032,1061.299438 
	C1191.912354,1058.813843 1192.031982,1056.302368 1192.031982,1053.802612 
	C1192.029053,747.304077 1192.027954,440.805573 1192.026978,134.307037 
	C1192.026978,132.169327 1192.027100,130.031616 1192.027100,127.864403 
	C1132.209717,127.864403 1072.840576,127.864403 1012.684937,127.794029 
	C1003.237854,118.501259 994.577209,109.278862 985.916626,100.056473 
z"/>
<path fill="#FF8080" opacity="1.000000" stroke="none" 
	d="
M1405.000000,1300.531372 
	C1403.004639,1300.936035 1401.009155,1300.816162 1399.013794,1300.816040 
	C1289.370850,1300.805786 1179.727905,1300.834473 1070.084961,1300.791748 
	C1018.669922,1300.771729 968.669983,1292.530396 920.543518,1274.143311 
	C889.897827,1262.434814 862.511353,1245.294922 838.068542,1223.409180 
	C800.078918,1189.393799 771.437073,1148.341553 747.848145,1103.516846 
	C710.548401,1032.638550 687.106934,956.986450 671.061890,878.848511 
	C667.818909,863.055359 665.482849,847.073425 662.862366,831.156494 
	C661.986267,825.834656 663.881287,822.599243 667.824768,821.767700 
	C671.971924,820.893250 674.820984,823.347717 676.138672,828.939453 
	C681.748352,852.744751 686.670776,876.737427 693.104309,900.317932 
	C707.590942,953.415955 726.077393,1005.092102 750.105286,1054.716187 
	C768.606018,1092.925537 790.141663,1129.224731 817.057495,1162.139404 
	C842.603699,1193.379272 872.156433,1219.932495 908.416321,1238.388794 
	C910.046387,1239.218506 911.717041,1239.970459 913.387390,1240.716919 
	C913.653931,1240.835938 914.019470,1240.733521 915.118835,1240.733521 
	C915.118835,1238.799072 915.118530,1236.899658 915.118835,1235.000244 
	C915.130127,1165.017334 915.069092,1095.034302 915.280701,1025.052002 
	C915.298889,1019.022339 916.736877,1012.894165 918.321960,1007.029663 
	C918.854309,1005.059937 921.995239,1002.391113 923.763000,1002.520081 
	C925.901367,1002.676147 929.034241,1005.110718 929.647827,1007.178955 
	C931.280273,1012.681213 932.569214,1018.509460 932.619629,1024.220093 
	C932.906250,1056.710693 932.682800,1089.205444 932.839294,1121.697754 
	C933.037292,1162.807495 933.479980,1203.916138 933.658203,1245.026001 
	C933.673096,1248.466309 934.773987,1249.932251 937.958252,1251.076782 
	C967.901611,1261.839722 998.840698,1267.934692 1030.407715,1271.167358 
	C1036.364746,1271.777466 1042.335815,1272.250366 1048.300659,1272.784058 
	C1054.568481,1273.344727 1054.868774,1273.089722 1054.869629,1266.928223 
	C1054.875000,1229.103027 1054.869019,1191.277954 1054.881958,1153.452759 
	C1054.882690,1151.290649 1055.017212,1149.128540 1055.538574,1146.447754 
	C1062.678101,1140.992188 1064.218140,1141.006226 1072.552979,1146.080566 
	C1072.723755,1148.560181 1073.041016,1151.039551 1073.043091,1153.519287 
	C1073.074585,1191.156860 1073.064697,1228.794434 1073.064453,1266.432007 
	C1073.064453,1268.396973 1073.064453,1270.361938 1073.064453,1272.684937 
	C1112.761108,1272.684937 1151.962891,1272.684937 1192.108765,1272.684937 
	C1192.108765,1230.412598 1192.108765,1188.190063 1192.541748,1145.444336 
	C1196.209595,1141.743774 1199.591797,1138.973267 1204.524048,1141.319702 
	C1206.279297,1142.154785 1207.960693,1143.145020 1209.675903,1144.064453 
	C1209.832031,1146.380981 1210.122559,1148.697266 1210.124268,1151.013916 
	C1210.152466,1189.647583 1210.219116,1228.281738 1210.046875,1266.914551 
	C1210.026123,1271.586304 1211.098999,1273.196533 1216.076294,1273.168213 
	C1252.710571,1272.959839 1289.346924,1272.964844 1325.981201,1273.164917 
	C1330.908691,1273.191895 1332.091553,1271.638184 1332.070312,1266.923340 
	C1331.896973,1228.457031 1331.969482,1189.989502 1331.975708,1151.522339 
	C1331.976074,1149.525269 1331.893799,1147.508789 1332.129395,1145.534790 
	C1332.712646,1140.646362 1336.575562,1137.121338 1341.114136,1137.143311 
	C1345.816650,1137.166138 1349.456299,1140.510132 1350.028198,1145.521973 
	C1350.253662,1147.498047 1350.174316,1149.512939 1350.174561,1151.510132 
	C1350.180542,1189.977295 1350.252441,1228.444824 1350.079224,1266.911133 
	C1350.058105,1271.578369 1351.114136,1273.272095 1356.106689,1273.172607 
	C1372.086792,1272.854370 1388.077148,1273.047485 1404.531738,1273.021484 
	C1405.000000,1282.020874 1405.000000,1291.041870 1405.000000,1300.531372 
z"/>
<path fill="#FF8080" opacity="1.000000" stroke="none" 
	d="
M1.000000,100.468658 
	C83.990486,100.021286 166.998779,98.992683 249.965759,100.399765 
	C315.037170,101.503342 377.910889,114.663673 436.331512,144.865555 
	C468.753296,161.626709 495.911072,184.879745 518.996216,213.050156 
	C556.086182,258.310425 580.345154,310.290558 598.764465,365.303284 
	C613.811584,410.244202 624.438721,456.260132 631.049438,503.172211 
	C633.996094,524.083191 636.218933,545.096680 638.706970,566.071167 
	C639.000244,568.543579 638.988220,571.065491 638.945862,573.561523 
	C638.874084,577.794861 636.942566,580.661133 632.473694,580.916992 
	C627.902710,581.178711 625.812317,578.087708 625.185181,574.194031 
	C623.968933,566.643250 623.209167,559.020325 622.129639,551.445862 
	C616.297974,510.526215 607.408569,470.267090 596.085205,430.524384 
	C585.340759,392.813477 572.062805,356.040833 555.089539,320.680420 
	C533.659790,276.035736 507.207184,234.890442 469.979462,201.514206 
	C445.064209,179.176651 416.141174,163.698090 384.835449,152.403015 
	C383.641937,151.972382 382.311462,151.921341 380.424469,151.581802 
	C380.315277,153.892868 380.146851,155.808456 380.145874,157.724121 
	C380.130249,189.054199 380.139587,220.384262 380.134033,251.714340 
	C380.132538,260.146545 376.963531,264.689819 371.107391,264.716888 
	C365.239044,264.744019 361.955933,260.144073 361.953583,251.773666 
	C361.944061,217.943848 361.890594,184.113739 362.042908,150.284607 
	C362.060059,146.473160 361.017029,144.774109 357.223572,143.728012 
	C331.956635,136.760254 306.226654,132.434570 280.179199,129.962433 
	C269.251099,128.925278 258.264679,128.497406 247.302368,127.831825 
	C245.499786,127.722382 243.684845,127.816414 241.110184,127.816414 
	C241.110184,130.145660 241.110291,132.077515 241.110168,134.009369 
	C241.107513,172.838669 241.108337,211.667969 241.092865,250.497269 
	C241.092010,252.659531 240.956482,254.821747 240.442673,257.516663 
	C236.623688,259.357635 233.307190,261.405731 229.844315,261.693665 
	C227.802658,261.863403 225.528976,259.242981 223.359650,257.877380 
	C223.208359,255.559036 222.926804,253.240799 222.925186,250.922348 
	C222.898132,212.106567 222.906036,173.290787 222.906189,134.474991 
	C222.906189,132.507843 222.906204,130.540680 222.906204,128.164062 
	C183.569656,128.164062 144.693497,128.164062 104.966942,128.164062 
	C104.966942,130.065384 104.966949,131.985840 104.966934,133.906296 
	C104.966614,172.888687 104.985542,211.871094 104.920059,250.853378 
	C104.915955,253.295944 104.628860,255.873184 103.809952,258.149017 
	C102.422768,262.004211 99.162598,263.857117 95.190742,263.693298 
	C91.100342,263.524628 88.350540,260.935425 87.284729,257.125763 
	C86.535759,254.448608 86.377464,251.537933 86.373451,248.730957 
	C86.318527,210.248413 86.267677,171.765488 86.431580,133.283569 
	C86.450096,128.933990 85.353668,127.610786 80.883415,127.649353 
	C54.564301,127.876427 28.242472,127.788940 1.460779,127.903702 
	C1.000000,118.979103 1.000000,109.958214 1.000000,100.468658 
z"/>
<path fill="#7FAFFF" opacity="1.000000" stroke="none" 
	d="
M1.000000,1273.468628 
	C27.305756,1272.960571 53.611507,1272.919556 79.917267,1272.882935 
	C86.824593,1272.873291 86.830116,1272.879395 86.830559,1266.179077 
	C86.832970,1229.213745 86.832115,1192.248291 86.833984,1155.282959 
	C86.834076,1153.451416 86.789444,1151.617188 86.868362,1149.788696 
	C87.105461,1144.295776 90.924500,1140.067383 95.585907,1140.071533 
	C100.504158,1140.075684 104.367378,1143.850098 104.903885,1149.319824 
	C105.081985,1151.135620 104.980347,1152.980103 104.980469,1154.811523 
	C104.982941,1191.943359 104.981606,1229.075195 104.981041,1266.207031 
	C104.981010,1268.175293 104.981041,1270.143433 104.981041,1272.895508 
	C162.809479,1272.895508 220.181351,1272.895508 278.353851,1273.010254 
	C288.676849,1282.183105 298.199249,1291.241333 307.721619,1300.299438 
	C305.242218,1300.462646 302.762421,1300.773315 300.283386,1300.767700 
	C200.834412,1300.543091 101.385521,1300.290039 1.468309,1300.020264 
	C1.000000,1291.312378 1.000000,1282.624878 1.000000,1273.468628 
z"/>
<path fill="#040404" opacity="1.000000" stroke="none" 
	d="
M308.036041,1300.407715 
	C298.199249,1291.241333 288.676849,1282.183105 278.857910,1273.015137 
	C277.907043,1271.951050 277.327911,1270.933472 276.587677,1270.051147 
	C246.718475,1234.451416 233.060242,1192.319824 227.021942,1147.114868 
	C226.977859,1146.784912 226.955368,1146.451538 226.934341,1146.118896 
	C226.599182,1140.816772 228.531982,1137.499390 232.368988,1136.786987 
	C236.197311,1136.076172 239.323013,1138.599487 240.692795,1143.625488 
	C241.830460,1147.799927 242.764557,1152.031494 243.967850,1156.185913 
	C251.531021,1182.296753 262.164032,1206.937744 278.565369,1228.863159 
	C301.241089,1259.176147 332.267426,1266.775269 367.799622,1261.421631 
	C378.654175,1259.786255 387.355225,1253.250732 395.338898,1245.992188 
	C410.794098,1231.940918 422.584534,1214.990967 433.279541,1197.253174 
	C455.628815,1160.186279 473.614410,1120.932983 488.816833,1080.541626 
	C515.443420,1009.797302 541.188843,938.718018 566.878357,867.625549 
	C585.325378,816.575806 603.081665,765.276489 621.139954,714.086426 
	C621.790649,712.241882 622.375366,710.374084 623.309631,707.555176 
	C620.714966,707.555176 618.825195,707.556152 616.935486,707.554993 
	C582.939880,707.534485 548.944336,707.517761 514.948730,707.483276 
	C512.952759,707.481262 510.929901,707.516113 508.966217,707.222107 
	C504.111053,706.495300 500.998901,702.991943 500.968018,698.477905 
	C500.936829,693.920532 503.910156,690.396973 508.786194,689.566467 
	C510.901947,689.206055 513.100342,689.247803 515.261230,689.247681 
	C551.589844,689.245789 587.919006,689.176697 624.246338,689.397644 
	C628.666687,689.424500 630.581055,688.083862 632.041077,683.965332 
	C657.522034,612.084717 682.773804,540.119141 708.870911,468.461761 
	C734.454895,398.213257 760.540405,328.140625 787.177185,258.284943 
	C801.603210,220.452316 818.224426,183.514618 840.197327,149.276657 
	C851.869324,131.089554 865.052429,114.153664 882.396179,100.949379 
	C898.698120,88.538269 916.672363,80.461456 937.705383,81.157257 
	C955.762268,81.754616 971.140076,89.238647 985.598999,99.948364 
	C994.577209,109.278862 1003.237854,118.501259 1012.183838,127.830505 
	C1017.495056,134.777832 1022.838623,141.409576 1027.492065,148.494659 
	C1048.408447,180.341034 1060.369141,215.621170 1066.866699,252.923080 
	C1067.806885,258.319977 1065.727051,261.991394 1061.721558,262.823914 
	C1057.822876,263.634216 1054.660400,261.099396 1053.104614,255.673553 
	C1045.340210,228.595306 1034.314331,203.000626 1018.442932,179.631363 
	C1015.358887,175.090454 1011.940979,170.770386 1008.573364,166.428909 
	C990.081177,142.589081 964.910645,135.071487 935.123657,136.865204 
	C928.182434,139.084503 922.090515,141.248505 915.998596,143.412476 
	C907.481628,151.293030 898.022095,158.382950 890.624329,167.202316 
	C868.402588,193.694321 852.731140,224.292603 837.944275,255.314865 
	C808.381409,317.336487 784.528625,381.678833 761.172302,446.187897 
	C732.434753,525.559753 704.302307,605.150696 675.914856,684.649353 
	C675.477600,685.874023 675.124878,687.128906 674.437744,689.302856 
	C676.832336,689.302856 678.721924,689.302185 680.611511,689.302979 
	C714.605469,689.317566 748.599426,689.323914 782.593384,689.366943 
	C784.746765,689.369690 786.962830,689.386780 789.040161,689.869141 
	C793.565674,690.919861 796.351379,694.595886 796.047485,698.932007 
	C795.727417,703.498474 793.126892,706.308716 788.719421,707.220886 
	C786.625122,707.654297 784.414490,707.634644 782.256531,707.634644 
	C745.929626,707.634094 709.602478,707.665100 673.276245,707.496216 
	C669.210632,707.477295 667.229248,708.471375 665.773254,712.604797 
	C633.965820,802.905518 602.256775,893.242859 569.917114,983.353516 
	C549.502014,1040.237915 528.416382,1096.888062 506.994232,1153.401855 
	C495.951202,1182.534546 482.739349,1210.772339 466.806671,1237.633789 
	C455.285736,1257.057251 442.393677,1275.472290 425.294434,1290.472656 
	C419.435699,1295.612305 413.153107,1300.431519 406.506561,1304.482300 
	C376.964783,1322.486450 346.997864,1322.466675 316.912415,1305.667236 
	C314.005920,1304.044189 311.201996,1302.237549 308.036041,1300.407715 
z"/>
<path fill="#F7EBFF" opacity="1.000000" stroke="none" 
	d="
M1071.004883,1036.000000 
	C1071.004639,1051.662231 1071.015869,1066.824463 1070.999268,1081.986694 
	C1070.991699,1088.825073 1067.596924,1093.075562 1062.274292,1092.998779 
	C1056.516357,1092.915527 1053.059692,1088.800781 1053.013184,1081.795288 
	C1052.957886,1073.464722 1053.000000,1065.133545 1053.000000,1056.802612 
	C1053.000000,817.705688 1052.997559,578.608704 1053.034180,339.511749 
	C1053.034546,337.055023 1053.232178,334.509308 1053.891235,332.160431 
	C1055.216309,327.437500 1058.829590,325.526001 1063.457153,326.076630 
	C1068.040161,326.621918 1070.157837,330.014191 1070.931885,334.214233 
	C1071.258789,335.987976 1071.004272,337.869904 1071.004272,339.702667 
	C1071.005005,571.635132 1071.004883,803.567566 1071.004883,1036.000000 
z"/>
<path fill="#040404" opacity="1.000000" stroke="none" 
	d="
M967.029053,667.098572 
	C957.265503,667.099182 947.964966,667.099182 938.198364,667.099182 
	C938.198364,763.115601 938.198364,858.684448 938.198364,954.630127 
	C931.017090,954.630127 924.286194,954.630127 917.082153,954.630127 
	C917.082153,859.119141 917.082153,763.424988 917.082153,668.048035 
	C902.311279,668.048035 887.957458,667.287598 873.729187,668.297241 
	C863.037292,669.055969 855.637695,676.107117 851.136169,685.828796 
	C846.101501,696.701782 844.213928,708.329956 843.153015,720.138916 
	C843.078430,720.968323 843.319946,721.958679 842.946228,722.602234 
	C842.055908,724.135071 840.885071,725.504883 839.827515,726.940552 
	C838.576416,725.565430 836.610168,724.364197 836.224548,722.778564 
	C835.447388,719.582397 835.449219,716.181580 835.272156,712.857544 
	C834.421326,696.886780 833.588257,680.914978 832.809387,664.940552 
	C832.377991,656.092468 835.255798,653.102478 843.987183,653.050476 
	C898.314087,652.726746 952.640991,652.390686 1006.967957,652.072327 
	C1020.599792,651.992432 1022.382507,654.252136 1021.480713,667.908447 
	C1020.383179,684.529053 1019.806274,701.184143 1019.003906,717.824280 
	C1018.939819,719.153992 1019.320740,720.762268 1018.705322,721.748413 
	C1017.766296,723.253418 1016.138184,724.328491 1014.802734,725.586182 
	C1013.827820,724.213623 1012.267883,722.954346 1011.976685,721.449524 
	C1010.526917,713.956970 1009.914246,706.275085 1008.083435,698.888672 
	C1002.456604,676.187073 990.795837,667.250671 967.029053,667.098572 
z"/>
<path fill="#7FAFFF" opacity="1.000000" stroke="none" 
	d="
M916.258850,143.785950 
	C922.090515,141.248505 928.182434,139.084503 934.681091,137.014801 
	C935.083313,290.363678 935.078796,443.618286 935.074280,596.872864 
	C935.074036,605.622986 930.647461,609.005798 922.054871,606.720154 
	C918.616333,605.805481 916.835022,603.747620 916.908081,599.859314 
	C917.095947,589.867981 916.969971,579.870667 916.970032,569.875793 
	C916.970520,430.280518 916.973389,290.685242 916.953064,151.089981 
	C916.952698,148.779770 916.670044,146.469604 916.258850,143.785950 
z"/>
<path fill="#FF9797" opacity="1.000000" stroke="none" 
	d="
M1209.720337,1143.710205 
	C1207.960693,1143.145020 1206.279297,1142.154785 1204.524048,1141.319702 
	C1199.591797,1138.973267 1196.209595,1141.743774 1192.655273,1144.992432 
	C1192.850830,1140.442993 1195.091064,1137.426636 1199.995483,1137.042358 
	C1204.821167,1136.664185 1208.337036,1138.422241 1209.720337,1143.710205 
z"/>
<path fill="#FF9797" opacity="1.000000" stroke="none" 
	d="
M1072.621338,1145.738159 
	C1064.218140,1141.006226 1062.678101,1140.992188 1055.661133,1145.997559 
	C1055.767090,1140.999512 1059.454346,1138.818481 1063.623169,1138.498047 
	C1068.087891,1138.154907 1071.210205,1141.051758 1072.621338,1145.738159 
z"/>
<path fill="#F3DFFF" opacity="1.000000" stroke="none" 
	d="
M362.010986,882.000000 
	C362.010986,701.865173 361.997009,522.230347 362.090118,342.595520 
	C362.092468,338.018036 362.983307,333.376801 363.986847,328.882996 
	C364.893707,324.822388 367.814972,322.249420 372.077911,322.074829 
	C376.434326,321.896454 378.107178,325.261200 378.986572,328.728058 
	C379.956116,332.550079 380.912415,336.518066 380.913605,340.422791 
	C381.001587,624.872375 380.997131,909.321960 380.951447,1193.771606 
	C380.950958,1196.894287 380.451172,1200.040039 379.939697,1203.134521 
	C379.050537,1208.513550 375.808502,1211.792236 371.761261,1211.687256 
	C368.174133,1211.594116 363.580505,1207.110962 363.063507,1202.810303 
	C362.530579,1198.377319 362.056152,1193.902344 362.053741,1189.445557 
	C361.998291,1087.130371 362.010986,984.815186 362.010986,882.000000 
z"/>
<path fill="#F7EBFF" opacity="1.000000" stroke="none" 
	d="
M84.995209,733.000000 
	C84.995277,593.850891 84.995338,455.201752 84.995613,316.552612 
	C84.995613,314.886169 84.956871,313.218414 85.007652,311.553497 
	C85.163002,306.460114 88.125053,302.708618 92.944046,302.236237 
	C97.579552,301.781830 100.379623,304.820099 101.934402,308.681885 
	C102.828201,310.901947 102.959297,313.541809 102.959717,315.992767 
	C103.002289,565.627869 103.007828,815.263000 102.906960,1064.898071 
	C102.905678,1068.070923 102.316711,1071.842896 100.531845,1074.241089 
	C98.865410,1076.480225 95.214592,1078.459351 92.479340,1078.405518 
	C88.190041,1078.321411 85.411987,1075.059204 85.031479,1070.455566 
	C84.894646,1068.800049 84.996071,1067.124390 84.996056,1065.458008 
	C84.995300,954.805359 84.995300,844.152649 84.995209,733.000000 
z"/>
<path fill="#F7EBFF" opacity="1.000000" stroke="none" 
	d="
M236.999390,967.000000 
	C236.999344,1002.661438 237.081589,1037.823364 236.851318,1072.983276 
	C236.831787,1075.966675 235.427856,1079.631470 233.377823,1081.705322 
	C231.546173,1083.558350 227.728439,1084.736694 225.150909,1084.257080 
	C221.429398,1083.564819 219.152634,1080.289673 219.008102,1076.128418 
	C218.973419,1075.129639 218.996353,1074.128784 218.996353,1073.128906 
	C218.995956,822.333069 218.995453,571.537292 218.997543,320.741486 
	C218.997604,312.578644 221.378555,309.219757 227.274948,309.000671 
	C232.496353,308.806671 236.112076,311.964569 236.893707,317.604645 
	C237.143280,319.405487 236.996460,321.264069 236.996490,323.096252 
	C236.999573,537.564148 236.999390,752.032104 236.999390,967.000000 
z"/>
<path fill="#FFA6A6" opacity="1.000000" stroke="none" 
	d="
M223.304581,258.230530 
	C225.528976,259.242981 227.802658,261.863403 229.844315,261.693665 
	C233.307190,261.405731 236.623688,259.357635 240.324005,257.963989 
	C239.937576,262.163361 237.407410,264.510773 233.099472,264.936432 
	C228.142075,265.426270 224.883713,263.258240 223.304581,258.230530 
z"/>
</svg>